<svg xmlns="http://www.w3.org/2000/svg" xmlns:xlink="http://www.w3.org/1999/xlink" version="1.1" x="0px" y="0px" viewBox="0 0 1024 1280" style="enable-background:new 0 0 1024 1024;" xml:space="preserve"><g><g><g><path d="M886.9,771.1c-6.8,0-13.5,0-20.3,0c-18.4,0-36.8,0-55.2,0c-27,0-54.1,0-81.1,0c-33.1,0-66.2,0-99.3,0     c-36.2,0-72.4,0-108.6,0c-36.5,0-72.9,0-109.4,0c-33.9,0-67.8,0-101.7,0c-28.4,0-56.8,0-85.1,0c-20.3,0-40.5,0-60.8,0     c-9.2,0-18.4,0-27.6,0c-3,0-6.1-0.2-9.1-0.6c4.4,0.6,8.9,1.2,13.3,1.8c-4.9-0.8-9.6-2.1-14.2-4c4,1.7,8,3.4,11.9,5     c-4.4-2-8.6-4.4-12.4-7.3c3.4,2.6,6.7,5.2,10.1,7.8c-3.8-3-7.1-6.4-10.1-10.1c2.6,3.4,5.2,6.7,7.8,10.1c-2.9-3.9-5.4-8-7.3-12.4     c1.7,4,3.4,8,5,11.9c-1.9-4.6-3.2-9.3-4-14.2c0.6,4.4,1.2,8.9,1.8,13.3c-0.9-6.6-0.6-13.4-0.6-20.1c0-12,0-24,0-36     c0-40.4,0-80.8,0-121.2c0-49.4,0-98.8,0-148.2c0-42.4,0-84.7,0-127.1c0-19.8-0.2-39.5,0-59.3c0-2.9,0.2-5.8,0.6-8.7     c-0.6,4.4-1.2,8.9-1.8,13.3c0.8-4.9,2.1-9.6,4-14.2c-1.7,4-3.4,8-5,11.9c2-4.4,4.4-8.6,7.3-12.4c-2.6,3.4-5.2,6.7-7.8,10.1     c3-3.8,6.4-7.1,10.1-10.1c-3.4,2.6-6.7,5.2-10.1,7.8c3.9-2.9,8-5.4,12.4-7.3c-4,1.7-8,3.4-11.9,5c4.6-1.9,9.3-3.2,14.2-4     c-4.4,0.6-8.9,1.2-13.3,1.8c8.7-1.2,17.9-0.6,26.7-0.6c18,0,36,0,53.9,0c27,0,53.9,0,80.9,0c33.1,0,66.2,0,99.3,0     c36.3,0,72.6,0,108.9,0c36.7,0,73.3,0,110,0c34.1,0,68.3,0,102.4,0c28.7,0,57.4,0,86.2,0c20.4,0,40.9,0,61.3,0     c9.3,0,18.5,0,27.8,0c3,0,6.1,0.2,9.1,0.6c-4.4-0.6-8.9-1.2-13.3-1.8c4.9,0.8,9.6,2.1,14.2,4c-4-1.7-8-3.4-11.9-5     c4.4,2,8.6,4.4,12.4,7.3c-3.4-2.6-6.7-5.2-10.1-7.8c3.8,3,7.1,6.4,10.1,10.1c-2.6-3.4-5.2-6.7-7.8-10.1c2.9,3.9,5.4,8,7.3,12.4     c-1.7-4-3.4-8-5-11.9c1.9,4.6,3.2,9.3,4,14.2c-0.6-4.4-1.2-8.9-1.8-13.3c0.9,6.6,0.6,13.4,0.6,20.1c0,12,0,24,0,36     c0,40.4,0,80.8,0,121.2c0,49.4,0,98.8,0,148.2c0,42.4,0,84.7,0,127.1c0,19.8,0.2,39.5,0,59.3c0,2.9-0.2,5.8-0.6,8.7     c0.6-4.4,1.2-8.9,1.8-13.3c-0.8,4.9-2.1,9.6-4,14.2c1.7-4,3.4-8,5-11.9c-2,4.4-4.4,8.6-7.3,12.4c2.6-3.4,5.2-6.7,7.8-10.1     c-3,3.8-6.4,7.1-10.1,10.1c3.4-2.6,6.7-5.2,10.1-7.8c-3.9,2.9-8,5.4-12.4,7.3c4-1.7,8-3.4,11.9-5c-4.6,1.9-9.3,3.2-14.2,4     c4.4-0.6,8.9-1.2,13.3-1.8C892.5,770.8,889.7,771,886.9,771.1c-12.9,0.2-26.2,5.5-35.4,14.6c-8.7,8.7-15.2,22.9-14.6,35.4     c0.6,12.9,4.8,26.3,14.6,35.4c9.7,8.9,21.9,14.8,35.4,14.6c37.9-0.5,74.9-20.9,93.3-54.6c9.2-16.8,13.7-35.1,13.8-54.2     c0-11.6,0-23.3,0-34.9c0-53.4,0-106.9,0-160.3c0-63.5,0-127.1,0-190.6c0-37.6,0-75.2,0-112.7c0-10.7-1-21.6-3.8-31.9     c-9.7-36-39.1-65.3-75-75c-13.7-3.7-27.1-3.8-41-3.8c-35.7,0-71.5,0-107.2,0c-58.7,0-117.3,0-176,0c-65.2,0-130.5,0-195.7,0     c-55.4,0-110.9,0-166.3,0c-29.3,0-58.6,0-87.9,0c-2.3,0-4.5,0-6.8,0.1c-37.2,1.8-73.7,21.8-91.1,55.6C34.5,225.5,30,243,30,262     c0,4.2,0,8.4,0,12.6c0,45.5,0,91.1,0,136.6c0,64.4,0,128.8,0,193.2c0,47.2,0,94.4,0,141.6c0,16-0.5,31.9,4.1,47.6     c10.6,35.7,40.4,66.3,77.3,74.4c9.3,2,18.8,3.1,28.3,3.1c27.7,0,55.4,0,83.2,0c54.6,0,109.2,0,163.8,0c65.1,0,130.3,0,195.4,0     c59.3,0,118.6,0,177.9,0c37.1,0,74.3,0,111.4,0c5.1,0,10.3,0,15.4,0c12.8,0,26.3-5.6,35.4-14.6c8.7-8.7,15.2-22.9,14.6-35.4     c-0.6-12.9-4.8-26.3-14.6-35.4C912.5,776.7,900.5,771.1,886.9,771.1z"/></g></g><g><g><path d="M889.2,187c-12.4,11.1-24.9,22.3-37.3,33.4c-29.8,26.7-59.6,53.5-89.4,80.2c-36,32.3-72,64.6-107.9,96.9     c-31,27.8-61.9,55.5-92.9,83.3c-14.7,13.2-29.4,26.5-44.1,39.6c-1.3,1.1-2.5,2.2-3.9,3.3c3.4-2.6,6.7-5.2,10.1-7.8     c-4.3,3.2-8.8,5.9-13.7,8c4-1.7,8-3.4,11.9-5c-4.8,2-9.8,3.3-15,4.1c4.4-0.6,8.9-1.2,13.3-1.8c-5.6,0.7-11.2,0.7-16.8,0     c4.4,0.6,8.9,1.2,13.3,1.8c-5.2-0.8-10.1-2.1-15-4.1c4,1.7,8,3.4,11.9,5c-4.9-2.1-9.5-4.8-13.7-8c3.4,2.6,6.7,5.2,10.1,7.8     c-13.7-10.9-26.3-23.4-39.3-35.1c-29.6-26.5-59.1-53.1-88.7-79.6c-36-32.3-71.9-64.5-107.9-96.8c-31.2-28-62.3-55.9-93.5-83.9     c-15.2-13.6-30.2-27.3-45.5-40.8c-0.2-0.2-0.4-0.4-0.6-0.6c-9.9-8.9-21.8-14.6-35.4-14.6c-12.3,0-26.9,5.4-35.4,14.6     c-8.7,9.5-15.2,22-14.6,35.4c0.6,12.8,4.8,26.5,14.6,35.4c13.4,12,26.8,24,40.1,36c31.7,28.5,63.4,56.9,95.1,85.4     c37.5,33.7,75.1,67.3,112.6,101c30.4,27.3,60.9,54.6,91.3,81.9c8.6,7.8,17.3,15.5,25.9,23.3c2,1.8,4,3.6,6,5.3     c10.6,9.5,21.3,16.7,34.3,22.2c14,5.9,28.7,9.3,44,9c17.6-0.4,32.7-4.7,48.5-12.1c10-4.7,18.9-11.8,27.1-19.1     c5.7-5.1,11.4-10.2,17.1-15.4c26.8-24.1,53.7-48.2,80.5-72.3c37-33.2,74-66.4,111-99.6c34.2-30.7,68.5-61.5,102.7-92.2     c19-17,37.9-34,56.9-51.1c0.9-0.8,1.8-1.6,2.6-2.4c9.2-8.3,14.6-23.2,14.6-35.4c0-12.3-5.4-26.9-14.6-35.4     c-9.5-8.7-22-15.2-35.4-14.6C910.9,172.9,899.5,177.8,889.2,187L889.2,187z"/></g></g><g><g><path d="M959.9,766.3c-10.7-9.6-21.4-19.2-32.1-28.8c-25.7-23-51.4-46.1-77.1-69.1c-31.1-27.9-62.2-55.8-93.3-83.6     c-26.9-24.1-53.8-48.2-80.7-72.4c-13.1-11.8-26.1-23.6-39.3-35.3c-0.2-0.2-0.4-0.3-0.6-0.5c-9.9-8.9-21.8-14.6-35.4-14.6     c-12.3,0-26.9,5.4-35.4,14.6c-8.7,9.5-15.2,22-14.6,35.4c0.6,12.8,4.8,26.5,14.6,35.4c10.7,9.6,21.4,19.2,32.1,28.8     c25.7,23,51.4,46.1,77.1,69.1c31.1,27.9,62.2,55.8,93.3,83.6c26.9,24.1,53.8,48.2,80.7,72.4c13.1,11.8,26.1,23.6,39.3,35.3     c0.2,0.2,0.4,0.3,0.6,0.5c9.9,8.9,21.8,14.6,35.4,14.6c12.3,0,26.9-5.4,35.4-14.6c8.7-9.5,15.2-22,14.6-35.4     C974,788.8,969.8,775.2,959.9,766.3L959.9,766.3z"/></g></g><g><g><path d="M387.2,476.6c-10.7,9.6-21.4,19.2-32.1,28.8c-25.7,23-51.4,46.1-77.1,69.1c-31.1,27.9-62.2,55.8-93.3,83.6     c-26.9,24.1-53.8,48.2-80.7,72.4c-13.1,11.8-26.5,23.3-39.3,35.3c-0.2,0.2-0.4,0.3-0.6,0.5c-9.2,8.3-14.6,23.2-14.6,35.4     c0,12.3,5.4,26.9,14.6,35.4c9.5,8.7,22,15.2,35.4,14.6c13.7-0.6,25.1-5.5,35.4-14.6c10.7-9.6,21.4-19.2,32.1-28.8     c25.7-23,51.4-46.1,77.1-69.1c31.1-27.9,62.2-55.8,93.3-83.6c26.9-24.1,53.8-48.2,80.7-72.4c13.1-11.8,26.5-23.3,39.3-35.3     c0.2-0.2,0.4-0.3,0.6-0.5c9.2-8.3,14.6-23.2,14.6-35.4c0-12.3-5.4-26.9-14.6-35.4c-9.5-8.7-22-15.2-35.4-14.6     C408.9,462.6,397.4,467.5,387.2,476.6L387.2,476.6z"/></g></g></g><text x="0" y="1039" fill="#000000" font-size="5px" font-weight="bold" font-family="'Helvetica Neue', Helvetica, Arial-Unicode, Arial, Sans-serif">Created by shashank singh</text><text x="0" y="1044" fill="#000000" font-size="5px" font-weight="bold" font-family="'Helvetica Neue', Helvetica, Arial-Unicode, Arial, Sans-serif">from the Noun Project</text></svg>