<svg xmlns="http://www.w3.org/2000/svg" xmlns:xlink="http://www.w3.org/1999/xlink" xml:space="preserve" version="1.0" style="shape-rendering:geometricPrecision;text-rendering:geometricPrecision;image-rendering:optimizeQuality;" viewBox="0 0 10000 12500" x="0px" y="0px" fill-rule="evenodd" clip-rule="evenodd"><defs><style type="text/css">
   
    .fil1 {fill:black}
    .fil0 {fill:black;fill-rule:nonzero}
   
  </style></defs><g><path class="fil0" d="M5000 990c2215,0 4010,1795 4010,4010 0,2215 -1795,4010 -4010,4010 -2215,0 -4010,-1795 -4010,-4010 0,-2215 1795,-4010 4010,-4010zm0 406c-1991,0 -3604,1613 -3604,3604 0,1991 1613,3604 3604,3604 1991,0 3604,-1613 3604,-3604 0,-1991 -1613,-3604 -3604,-3604z"/><path class="fil1" d="M3341 2826c520,-296 1119,1193 1120,1197 12,29 5,63 -19,85 -664,583 835,2128 1439,1484 21,-23 56,-32 87,-18 4,2 1473,644 1163,1155 -1214,1993 -5835,-2739 -3790,-3903z"/></g><text x="0" y="10015" fill="#000000" font-size="5px" font-weight="bold" font-family="'Helvetica Neue', Helvetica, Arial-Unicode, Arial, Sans-serif">Created by syaputraedy</text><text x="0" y="10020" fill="#000000" font-size="5px" font-weight="bold" font-family="'Helvetica Neue', Helvetica, Arial-Unicode, Arial, Sans-serif">from the Noun Project</text></svg>