<svg width="199" height="80" viewBox="0 0 199 80" fill="none" xmlns="http://www.w3.org/2000/svg">
<path d="M61.6294 41.0449H71.104V52.7695C68.6196 53.8242 65.8247 54.3516 62.7192 54.3516C58.6646 54.3516 55.5532 53.209 53.3853 50.9238C51.229 48.627 50.1509 45.3809 50.1509 41.1855C50.1509 38.5723 50.6841 36.2578 51.7505 34.2422C52.8286 32.2148 54.3638 30.6504 56.356 29.5488C58.3599 28.4473 60.6567 27.8965 63.2466 27.8965C66.0474 27.8965 68.561 28.4121 70.7876 29.4434L70.0669 31.0605C67.8403 30.0293 65.5317 29.5137 63.1411 29.5137C59.7544 29.5137 57.065 30.5625 55.0728 32.6602C53.0923 34.7461 52.1021 37.5645 52.1021 41.1152C52.1021 44.9824 53.0454 47.8945 54.9321 49.8516C56.8189 51.7969 59.5903 52.7695 63.2466 52.7695C65.6138 52.7695 67.6235 52.4355 69.2759 51.7676V42.7324H61.6294V41.0449ZM78.1535 54H76.4133V34.8926H78.1535V54ZM76.1672 29.584C76.1672 28.459 76.5364 27.8965 77.2746 27.8965C77.6379 27.8965 77.9192 28.043 78.1184 28.3359C78.3293 28.6289 78.4348 29.0449 78.4348 29.584C78.4348 30.1113 78.3293 30.5273 78.1184 30.832C77.9192 31.1367 77.6379 31.2891 77.2746 31.2891C76.5364 31.2891 76.1672 30.7207 76.1672 29.584ZM91.9179 34.5234C94.5898 34.5234 96.5996 35.3672 97.9472 37.0547C99.3066 38.7305 99.9863 41.1855 99.9863 44.4199C99.9863 47.5957 99.2714 50.0449 97.8418 51.7676C96.4238 53.4902 94.4257 54.3516 91.8476 54.3516C90.4882 54.3516 89.2636 54.0703 88.1738 53.5078C87.0839 52.9453 86.2226 52.1484 85.5898 51.1172H85.4316L84.9394 54H83.8496V26.6484H85.5898V33.5215C85.5898 34.5527 85.5664 35.502 85.5195 36.3691L85.4668 37.8633H85.5898C86.3164 36.7148 87.1894 35.8711 88.2089 35.332C89.2402 34.793 90.4765 34.5234 91.9179 34.5234ZM91.8828 36.1055C89.6328 36.1055 88.0214 36.75 87.0488 38.0391C86.0761 39.3281 85.5898 41.4551 85.5898 44.4199V44.7188C85.5898 47.6016 86.0937 49.6699 87.1015 50.9238C88.121 52.1777 89.7031 52.8047 91.8476 52.8047C93.9335 52.8047 95.5039 52.0781 96.5585 50.625C97.6132 49.1602 98.1406 47.0801 98.1406 44.3848C98.1406 38.8652 96.0546 36.1055 91.8828 36.1055Z" fill="white"/>
<path d="M102.641 61.5586C101.41 61.5586 100.338 61.4297 99.4238 61.1719V56.6367C100.361 56.8711 101.217 56.9883 101.99 56.9883C103.186 56.9883 104.041 56.6133 104.557 55.8633C105.072 55.125 105.33 53.9648 105.33 52.3828V28.3008H110.779V52.3477C110.779 55.3477 110.094 57.6328 108.723 59.2031C107.352 60.7734 105.324 61.5586 102.641 61.5586ZM120.378 44.1387C120.378 46.084 120.694 47.5547 121.327 48.5508C121.971 49.5469 123.014 50.0449 124.456 50.0449C125.885 50.0449 126.911 49.5527 127.532 48.5684C128.165 47.5723 128.481 46.0957 128.481 44.1387C128.481 42.1934 128.165 40.7344 127.532 39.7617C126.899 38.7891 125.862 38.3027 124.421 38.3027C122.991 38.3027 121.96 38.7891 121.327 39.7617C120.694 40.7227 120.378 42.1816 120.378 44.1387ZM133.966 44.1387C133.966 47.3379 133.122 49.8398 131.434 51.6445C129.747 53.4492 127.397 54.3516 124.385 54.3516C122.499 54.3516 120.835 53.9414 119.393 53.1211C117.952 52.2891 116.844 51.0996 116.071 49.5527C115.298 48.0059 114.911 46.2012 114.911 44.1387C114.911 40.9277 115.749 38.4316 117.425 36.6504C119.1 34.8691 121.456 33.9785 124.491 33.9785C126.378 33.9785 128.042 34.3887 129.483 35.209C130.925 36.0293 132.032 37.207 132.805 38.7422C133.579 40.2773 133.966 42.0762 133.966 44.1387ZM148.609 33.9785C150.929 33.9785 152.746 34.8867 154.058 36.7031C155.371 38.5078 156.027 40.9863 156.027 44.1387C156.027 47.3848 155.347 49.8984 153.988 51.6797C152.64 53.4609 150.8 54.3516 148.468 54.3516C146.16 54.3516 144.349 53.5137 143.037 51.8379H142.667L141.771 54H137.675V26.6484H143.037V33.0117C143.037 33.8203 142.966 35.1152 142.826 36.8965H143.037C144.29 34.9512 146.148 33.9785 148.609 33.9785ZM146.886 38.2676C145.562 38.2676 144.595 38.6777 143.986 39.498C143.376 40.3066 143.06 41.6484 143.037 43.5234V44.1035C143.037 46.2129 143.347 47.7246 143.968 48.6387C144.601 49.5527 145.597 50.0098 146.956 50.0098C148.058 50.0098 148.931 49.5059 149.576 48.498C150.232 47.4785 150.56 46.002 150.56 44.0684C150.56 42.1348 150.232 40.6875 149.576 39.7266C148.919 38.7539 148.023 38.2676 146.886 38.2676Z" fill="white"/>
</svg>
