<svg xmlns:dc="http://purl.org/dc/elements/1.1/" xmlns:cc="http://creativecommons.org/ns#" xmlns:rdf="http://www.w3.org/1999/02/22-rdf-syntax-ns#" xmlns:svg="http://www.w3.org/2000/svg" xmlns="http://www.w3.org/2000/svg" xmlns:sodipodi="http://sodipodi.sourceforge.net/DTD/sodipodi-0.dtd" xmlns:inkscape="http://www.inkscape.org/namespaces/inkscape" viewBox="0 0 26.458333 33.0729175" version="1.1" x="0px" y="0px"><g transform="translate(0,-270.54165)"><path style="color:#000000;font-style:normal;font-variant:normal;font-weight:normal;font-stretch:normal;font-size:medium;line-height:normal;font-family:sans-serif;font-variant-ligatures:normal;font-variant-position:normal;font-variant-caps:normal;font-variant-numeric:normal;font-variant-alternates:normal;font-feature-settings:normal;text-indent:0;text-align:start;text-decoration:none;text-decoration-line:none;text-decoration-style:solid;text-decoration-color:#000000;letter-spacing:normal;word-spacing:normal;text-transform:none;writing-mode:lr-tb;direction:ltr;text-orientation:mixed;dominant-baseline:auto;baseline-shift:baseline;text-anchor:start;white-space:normal;shape-padding:0;clip-rule:nonzero;display:inline;overflow:visible;visibility:visible;opacity:1;isolation:auto;mix-blend-mode:normal;color-interpolation:sRGB;color-interpolation-filters:linearRGB;solid-color:#000000;solid-opacity:1;vector-effect:none;fill:#000000;fill-opacity:1;fill-rule:nonzero;stroke:none;stroke-width:1.05833328;stroke-linecap:round;stroke-linejoin:round;stroke-miterlimit:4;stroke-dasharray:none;stroke-dashoffset:0;stroke-opacity:1;marker:none;color-rendering:auto;image-rendering:auto;shape-rendering:auto;text-rendering:auto;enable-background:accumulate" d="m 2.2721917,272.12915 a 0.55462166,0.5543561 0 0 0 -0.5524,0.55484 v 5.54409 a 0.55462166,0.5543561 0 0 0 0.5524,0.5543 h 5.5472865 a 0.55462166,0.5543561 0 0 0 0.5545662,-0.5543 v -5.54409 a 0.55462166,0.5543561 0 0 0 -0.5545662,-0.55484 z m 0.5545662,1.10914 H 7.264912 v 4.43549 H 2.8267579 Z m 8.6055241,0 a 0.55470066,0.55443506 0 0 0 0,1.10861 h 12.739316 a 0.55470066,0.55443506 0 0 0 0,-1.10861 z m 0,3.32635 a 0.55483697,0.55457129 0 1 0 0,1.10914 h 12.739316 a 0.55483697,0.55457129 0 1 0 0,-1.10914 z m -9.1600903,3.88173 c -0.3055998,10e-4 -0.5524483,0.24894 -0.5524,0.5543 v 5.543 c -4.19e-5,0.30536 0.2468044,0.55323 0.5524,0.55431 h 5.5478281 c 0.3063951,4e-5 0.5546071,-0.24815 0.5545662,-0.55431 v -5.543 c 2.41e-5,-0.15666 -0.065486,-0.29758 -0.1700525,-0.39841 l -2.405106,4.00948 a 0.55466681,0.55422079 0 0 1 -0.8600108,0.11259 l -1.3837076,-1.32945 a 0.55521239,0.55476595 0 1 1 0.7695689,-0.79951 l 0.8827567,0.84877 1.7980076,-2.99777 z m 9.1600903,1.10643 a 0.55470066,0.55443506 0 1 0 0,1.1086 h 12.739316 a 0.55470066,0.55443506 0 1 0 0,-1.1086 z m 0,3.32635 a 0.55483695,0.55457128 0 0 0 0,1.10914 h 12.739316 a 0.55483695,0.55457128 0 0 0 0,-1.10914 z m -9.1600903,3.88173 c -0.3055998,0.001 -0.5524483,0.24894 -0.5524,0.5543 v 5.543 c -4.19e-5,0.30536 0.2468044,0.55323 0.5524,0.5543 h 5.5478281 c 0.3063951,5e-5 0.5546071,-0.24814 0.5545662,-0.5543 v -5.543 c 2.41e-5,-0.15666 -0.065486,-0.29758 -0.1700525,-0.39841 l -2.405106,4.00948 a 0.55466681,0.55422079 0 0 1 -0.8600108,0.11259 l -1.3837076,-1.32945 a 0.55521239,0.55476595 0 1 1 0.7695689,-0.79952 l 0.8827567,0.84878 1.7980076,-2.99777 z m 9.1600903,1.10643 a 0.55470066,0.55443506 0 0 0 0,1.1086 h 12.739316 a 0.55470066,0.55443506 0 0 0 0,-1.1086 z m 0,3.32635 a 0.55483695,0.55457128 0 0 0 0,1.10914 h 12.739316 a 0.55483695,0.55457128 0 0 0 0,-1.10914 z"/></g><text x="0" y="41.458334" fill="#000000" font-size="5px" font-weight="bold" font-family="'Helvetica Neue', Helvetica, Arial-Unicode, Arial, Sans-serif">Created by ArtWorkLeaf</text><text x="0" y="46.458334" fill="#000000" font-size="5px" font-weight="bold" font-family="'Helvetica Neue', Helvetica, Arial-Unicode, Arial, Sans-serif">from the Noun Project</text></svg>