<svg xmlns="http://www.w3.org/2000/svg" xmlns:xlink="http://www.w3.org/1999/xlink" version="1.1" x="0px" y="0px" viewBox="0 0 100 125" style="enable-background:new 0 0 100 100;" xml:space="preserve"><title>111all</title><path d="M87.8,26.2L66.9,4.9c-0.5-0.5-1.1-0.8-1.8-0.8H38.9c-5.2,0-9.5,4.3-9.5,9.5v31.8c-2.4,0.6-4.3,1.7-5.8,3.4  c-1.7,2.1-2.6,4.7-2.4,7.4v1.7c-0.6,0.9-0.9,2-0.9,3.1v3.5c0,1.5,0.6,2.9,1.6,4c0.6,2.1,1.6,4.1,2.8,5.9v2l-7.8,4.3  c-3.3,1.8-5.4,5.3-5.4,9.1v0.6c0,3,2.5,5.5,5.5,5.5h34.2c3,0,5.5-2.5,5.5-5.5V90c-0.1-2.4-0.9-4.6-2.3-6.4H79c5.2,0,9.5-4.3,9.5-9.5  V28C88.5,27.3,88.2,26.7,87.8,26.2z M83.6,74.1c0,2.5-2,4.5-4.5,4.5H46.6l-4-2v-2.2l0.2-0.3c1.1-1.5,1.9-3.1,2.6-4.8  c1.6-1.1,2.5-2.9,2.5-4.8V61c0-1.1-0.3-2.1-0.9-3.1v-1.7c0.2-2.7-0.7-5.4-2.4-7.4c-2.2-2.5-5.7-3.8-10.2-3.9V13.6  c0-2.5,2-4.5,4.5-4.5h23.6v19.7c0,1.4,1.1,2.5,2.5,2.5h18.6V74.1z"/></svg>
